<svg xmlns="http://www.w3.org/2000/svg" width="51" height="20" fill="none"><g fill="currentColor" clip-path="url(#a)"><path d="M4.23.668H.605v3.605H4.23zM4.14 19.45V6.453H.694v12.982H4.14zm22.803.127v-3.181c-.503 0-.928-.026-1.238-.077-.361-.051-.632-.18-.812-.36-.181-.179-.297-.435-.362-.782a8 8 0 0 1-.077-1.257V9.39h2.49V6.454h-2.49V1.399H21.01v12.56c0 1.064.09 1.962.271 2.68.18.706.49 1.284.916 1.72.425.436.993.744 1.677.936.696.193 1.573.282 2.618.282zm19.71-.128V.4h-3.445v19.05zM17.694 7.736c-.954-1.026-2.296-1.539-3.998-1.539-.826 0-1.587.167-2.257.5a4.9 4.9 0 0 0-1.716 1.386l-.18.244V6.454H6.15v12.982H9.57v-6.914.474-.23c.04-1.22.336-2.117.903-2.695.607-.615 1.342-.923 2.18-.923.993 0 1.754.308 2.257.898.49.59.748 1.424.748 2.488v6.902h3.47v-7.363c.013-1.848-.477-3.31-1.432-4.337m23.733 5.196c0-.936-.167-1.809-.49-2.63a7 7 0 0 0-1.38-2.142 6.3 6.3 0 0 0-2.128-1.437c-.826-.346-1.742-.513-2.735-.513-.941 0-1.831.18-2.657.526a7 7 0 0 0-2.154 1.437 6.7 6.7 0 0 0-1.444 2.142c-.362.821-.53 1.706-.53 2.643s.168 1.822.504 2.643.812 1.539 1.406 2.142A6.45 6.45 0 0 0 32 19.18c.85.359 1.792.538 2.798.538 2.916 0 4.721-1.32 5.805-2.552l-2.477-1.873c-.516.615-1.754 1.45-3.302 1.45-.967 0-1.767-.219-2.373-.668-.606-.436-1.019-1.052-1.238-1.809l-.039-.115h10.254zM31.2 11.74c0-.95 1.096-2.604 3.457-2.617 2.36 0 3.47 1.655 3.47 2.604zm19.373 6.068a1.2 1.2 0 0 0-.27-.398 1.29 1.29 0 0 0-.89-.372c-.181 0-.336.039-.49.103a1.2 1.2 0 0 0-.4.27 1.272 1.272 0 0 0-.374.885c0 .18.038.333.102.487.065.154.155.282.271.398a1.289 1.289 0 0 0 .89.372c.18 0 .336-.039.49-.103.155-.064.284-.154.4-.27a1.27 1.27 0 0 0 .374-.885c0-.166-.038-.333-.103-.487m-.206.898a1 1 0 0 1-.22.334 1 1 0 0 1-.335.218 1.1 1.1 0 0 1-.413.077c-.142 0-.283-.026-.412-.077a1 1 0 0 1-.336-.218 1 1 0 0 1-.219-.334 1.1 1.1 0 0 1-.077-.41c0-.142.025-.283.077-.411s.129-.244.22-.334c.09-.09.206-.166.335-.218.129-.05.258-.077.412-.077.142 0 .284.026.413.077.13.052.245.129.336.218a1.059 1.059 0 0 1 .297.744c0 .154-.027.283-.078.411m-.722-.295a.4.4 0 0 0 .244-.116.38.38 0 0 0 .104-.282c0-.14-.039-.244-.13-.32-.077-.077-.218-.116-.386-.116h-.568v1.45h.271v-.59h.194l.36.59h.285zm-.142-.218h-.323v-.41h.323a.4.4 0 0 1 .116.025.13.13 0 0 1 .077.064c.026.026.026.064.026.116 0 .05-.013.09-.026.115a.3.3 0 0 1-.077.064.4.4 0 0 1-.116.026"/></g><defs><clipPath id="a"><path fill="#fff" d="M0 0h51v20H0z"/></clipPath></defs></svg>